<svg xmlns="http://www.w3.org/2000/svg" width="300" height="100" viewBox="0 0 300 100" role="img" aria-label="NextPrime Limited">
  <defs>
    <linearGradient id="blueTeal" x1="0" y1="0" x2="1" y2="1">
      <stop offset="0" stop-color="#1F5FFF"/>
      <stop offset="1" stop-color="#09C2D1"/>
    </linearGradient>
    <linearGradient id="steel" x1="0" y1="0" x2="1" y2="1">
      <stop offset="0" stop-color="#8EA0AF"/>
      <stop offset="1" stop-color="#D7DEE4"/>
    </linearGradient>
    <linearGradient id="emerald" x1="0" y1="1" x2="1" y2="0">
      <stop offset="0" stop-color="#0BA360"/>
      <stop offset="1" stop-color="#3ECF8E"/>
    </linearGradient>
    <linearGradient id="glow" x1="0" y1="0" x2="1" y2="1">
      <stop offset="0" stop-color="#FFFFFF" stop-opacity="0.22"/>
      <stop offset="1" stop-color="#FFFFFF" stop-opacity="0.08"/>
    </linearGradient>
  </defs>
  <rect width="300" height="100" fill="none"/>
  <g transform="translate(10,12)">
    <g transform="translate(0,0)">
      <path d="M12 68 L12 8 L28 8 L60 50 L60 8 L72 8 L72 68 L52 68 L28 36 L28 68 Z" fill="url(#blueTeal)"/>
      <path d="M84 8 C100 8 116 8 126 18 C136 28 136 44 126 54 C116 64 100 68 84 68 L84 54 C96 54 106 52 112 48 C117 45 120 40 120 35 C120 30 117 25 112 22 C106 18 96 16 84 16 Z" fill="url(#steel)"/>
      <path d="M105 34 C114 34 118 35 122 38 C125 40 127 43 127 46 C127 49 125 52 122 54 C118 57 114 58 105 58 L105 34 Z" fill="url(#emerald)"/>
      <path d="M14 10 L27 10 L57 50 L57 12 L70 12 L70 66 L53 66 L27 35 L27 66 L14 66 Z" fill="url(#glow)"/>
    </g>
    <g transform="translate(150,18)">
      <text x="0" y="20" font-family="Poppins, Arial, sans-serif" font-size="24" font-weight="700" fill="#0F172A" letter-spacing="0.5">NextPrime</text>
      <text x="148" y="20" font-family="Poppins, Arial, sans-serif" font-size="12" font-weight="600" fill="#0F172A">®</text>
      <text x="0" y="40" font-family="Poppins, Arial, sans-serif" font-size="14" font-style="italic" font-weight="500" fill="#64748B">Limited</text>
    </g>
  </g>
</svg>
